<svg width="219" height="65" viewBox="0 0 219 65" fill="none" xmlns="http://www.w3.org/2000/svg">
<path d="M67.6742 64.5203C66.1724 64.5203 65.1511 63.7994 64.6104 62.3576C64.1298 60.9158 63.8895 59.474 63.8895 58.0322C63.8895 52.8658 66.653 45.4466 72.1798 35.7745C75.7243 29.707 81.1911 21.5368 88.5803 11.264C80.5903 11.9849 70.2575 18.2928 57.5817 30.1876C47.4891 39.7395 40.3102 47.9397 36.0449 54.7882C34.6031 57.011 33.8822 58.6029 33.8822 59.5641C33.8822 59.9847 34.0023 60.255 34.2426 60.3751C34.543 60.4953 34.6932 60.5554 34.6932 60.5554C34.6932 60.6755 34.1225 61.1261 32.9811 61.9071C32.14 62.3877 31.0887 62.628 29.8271 62.628C27.304 62.628 26.2226 62.0572 26.5831 60.9158C27.4241 58.2725 30.2176 53.4065 34.9635 46.3176C41.1512 37.1262 45.1762 30.8484 47.0386 27.4842C51.1236 20.1551 53.1662 14.3579 53.1662 10.0926C53.1662 7.08882 52.4152 5.01624 50.9134 3.87482C49.4716 2.7334 47.429 2.16269 44.7857 2.16269C37.6368 2.16269 30.0374 5.43677 21.9874 11.9849C18.6833 14.6883 15.6194 17.692 12.7959 20.9961C9.97241 24.2402 7.68957 27.6044 5.9474 31.0887C4.20523 34.573 3.33415 37.9973 3.33415 41.3615C3.33415 47.1287 6.00748 50.0723 11.3541 50.1925C18.8034 50.3727 24.4204 47.8796 28.2051 42.7132C29.6469 40.7307 30.3678 38.8684 30.3678 37.1262C30.3678 36.1049 30.0374 35.4141 29.3766 35.0536C29.3165 34.9936 29.2865 34.9034 29.2865 34.7833C29.2865 34.543 29.4667 34.4228 29.8271 34.4228C31.3891 34.4228 32.17 35.4441 32.17 37.4867C32.17 38.7482 31.6594 40.3402 30.6381 42.2626C28.956 45.1462 26.4629 47.429 23.1588 49.1111C19.8547 50.7932 16.4305 51.6343 12.886 51.6343C8.98118 51.6343 5.85729 50.4628 3.51437 48.1199C1.17146 45.777 0 42.6231 0 38.6581C0 29.2865 6.428 19.4342 19.284 9.10132C21.4467 7.35916 24.09 5.79721 27.2139 4.41549C30.3378 3.03377 33.5518 1.95243 36.8559 1.17145C40.2201 0.390485 43.3139 0 46.1374 0C49.6818 0 52.4753 0.69086 54.5179 2.07258C56.6205 3.39422 57.6718 5.7071 57.6718 9.01121C57.6718 13.2765 55.9296 18.9236 52.4453 25.9523C51.6643 27.5142 50.6731 29.3165 49.4716 31.359C48.2701 33.4016 46.8583 35.6544 45.2363 38.1174C47.0986 35.7745 50.1324 32.8008 54.3376 29.1963C61.9071 22.8284 68.9058 17.6019 75.3338 13.5168C81.7618 9.37166 87.6191 6.33789 92.9056 4.41549C93.4463 4.17519 94.0471 4.05504 94.7079 4.05504C96.9907 4.05504 98.4325 5.34665 99.0333 7.92987C99.3336 8.95114 97.8919 11.0838 94.7079 14.3278C87.1985 22.0174 80.7105 30.6081 75.2437 40.0999C70.2574 48.8708 67.7643 55.2388 67.7643 59.2037C67.7643 60.8858 68.3351 61.7268 69.4765 61.7268C70.1974 61.7268 71.9996 61.096 74.8832 59.8345C77.4064 58.6931 79.0584 58.0322 79.8394 57.852C80.1398 57.9722 80.2899 58.1223 80.2899 58.3026C80.2899 59.2037 78.698 60.4653 75.514 62.0873C72.3901 63.7093 69.7769 64.5203 67.6742 64.5203Z" fill="white"/>
<path d="M89.1934 56.3201C87.7516 56.3201 86.3099 55.8095 84.8681 54.7882C83.4263 53.7669 82.6152 52.5654 82.435 51.1837C81.8343 46.5579 84.7479 41.0611 91.1759 34.6932C97.5438 28.3253 103.281 25.1413 108.387 25.1413C109.769 25.1413 110.85 25.4717 111.631 26.1325C112.052 26.553 112.352 27.1238 112.532 27.8447C112.773 28.5656 112.953 28.926 113.073 28.926C113.313 28.926 113.524 28.896 113.704 28.8359C113.884 28.7157 114.094 28.6557 114.335 28.6557C115.056 28.6557 115.686 28.926 116.227 29.4667C116.768 30.0073 117.068 30.4879 117.128 30.9085C117.188 31.0286 115.266 34.0023 111.361 39.8296C107.456 45.5367 105.684 49.4115 106.044 51.454C106.345 52.8358 107.006 53.5266 108.027 53.5266C111.151 53.5266 116.858 48.3602 125.148 38.0273C125.328 37.787 125.509 37.6669 125.689 37.6669C125.989 37.6669 126.139 37.8771 126.139 38.2977C126.139 38.7783 125.869 39.379 125.328 40.0999C117.699 50.3727 111.842 55.5091 107.757 55.5091C107.216 55.5091 106.705 55.419 106.225 55.2388C103.581 54.2175 102.26 52.235 102.26 49.2914C102.26 48.2701 102.38 47.2488 102.62 46.2275L97.0332 51.6343C95.3511 53.3164 93.8192 54.5179 92.4375 55.2388C91.1158 55.9597 90.0345 56.3201 89.1934 56.3201ZM88.3824 54.3376C91.8668 54.3376 96.6127 50.5229 102.62 42.8934L112.172 29.737C111.691 28.896 110.91 28.4754 109.829 28.4754C106.165 28.4754 101.208 31.4191 94.9606 37.3064C88.4725 43.3139 85.5589 48.2701 86.2197 52.1749C86.5201 53.6167 87.241 54.3376 88.3824 54.3376Z" fill="white"/>
<path d="M138.675 56.3201C136.092 56.3201 134.319 55.6593 133.358 54.3376C132.397 52.9559 131.916 51.1236 131.916 48.8408C131.916 46.3176 132.697 43.3139 134.259 39.8296C134.86 38.4479 135.491 37.2163 136.152 36.135C136.813 34.9936 137.503 33.9422 138.224 32.981C137.984 33.0411 137.774 33.0712 137.594 33.0712C137.413 33.0712 137.233 33.0712 137.053 33.0712C135.611 33.0712 134.41 32.0499 133.448 30.0074L126.78 38.6581C123.236 43.2839 121.073 45.5968 120.292 45.5968C119.992 45.5968 119.841 45.4766 119.841 45.2363C119.841 44.9359 119.992 44.5454 120.292 44.0648C120.472 43.7044 120.833 43.2238 121.373 42.6231C123.656 39.9798 125.759 37.3665 127.681 34.7833C129.604 32.2001 131.196 29.6769 132.457 27.2139C133.839 21.9874 135.581 19.3741 137.684 19.3741C139.065 19.3741 139.756 20.0049 139.756 21.2665C139.756 22.4079 139.005 23.9098 137.503 25.7721C136.062 27.6344 135.341 28.5956 135.341 28.6557C135.341 29.9172 136.272 30.548 138.134 30.548C139.216 30.548 140.417 30.1575 141.739 29.3766L144.082 27.9348C144.202 27.8747 144.382 27.8447 144.622 27.8447C145.343 27.8447 145.974 28.145 146.515 28.7458C147.055 29.3465 147.236 29.8872 147.055 30.3678L140.838 38.2076C136.993 43.1337 135.07 47.0986 135.07 50.1024C135.07 52.8057 136.392 54.1574 139.035 54.1574C140.838 54.1574 142.76 53.6167 144.803 52.5354C146.905 51.454 148.918 50.1324 150.84 48.5705C152.822 46.9484 154.475 45.3865 155.796 43.8846L157.959 41.3615C158.079 41.2413 158.229 41.0911 158.409 40.9109C158.59 40.7307 158.74 40.6406 158.86 40.6406C159.281 40.6406 159.491 40.8508 159.491 41.2714C159.491 41.3915 159.431 41.6018 159.311 41.9022C159.19 42.2025 158.98 42.5329 158.68 42.8934L155.796 46.1374C154.414 47.6994 152.702 49.2914 150.66 50.9134C148.677 52.4753 146.605 53.7669 144.442 54.7882C142.339 55.8095 140.417 56.3201 138.675 56.3201Z" fill="white"/>
<path d="M160.352 57.041C158.429 57.041 156.687 56.4403 155.125 55.2388C153.563 53.9772 152.782 52.3251 152.782 50.2826C152.782 46.0173 155.396 41.1512 160.622 35.6844C165.969 30.1575 170.745 27.3941 174.95 27.3941C176.332 27.3941 177.443 27.7846 178.284 28.5656C179.185 29.2865 179.636 30.1876 179.636 31.2689C179.636 34.6331 176.962 37.9372 171.616 41.1813C166.87 44.0648 162.875 45.5066 159.631 45.5066C159.15 45.5066 158.73 45.4466 158.369 45.3264C157.468 46.9484 157.018 48.6606 157.018 50.4628C157.018 53.5867 158.489 55.1486 161.433 55.1486C164.437 55.1486 168.312 53.1361 173.058 49.1111C176.722 46.1675 179.846 43.0436 182.429 39.7395C182.97 39.0186 183.451 38.6581 183.871 38.6581C184.231 38.6581 184.412 38.8383 184.412 39.1988C184.412 39.5592 184.171 40.0699 183.691 40.7307C182.009 42.9535 180.206 44.996 178.284 46.8583C176.362 48.7206 174.289 50.4328 172.066 51.9947C167.441 55.3589 163.536 57.041 160.352 57.041ZM160.892 43.5242C163.175 43.5242 166.149 42.3828 169.814 40.0999C171.015 39.2589 172.186 38.3277 173.328 37.3064C174.529 36.2251 175.491 35.1437 176.212 34.0624C176.992 32.981 177.383 32.0199 177.383 31.1788C177.383 30.3978 176.752 30.0074 175.491 30.0074C173.688 30.0074 171.165 31.359 167.921 34.0624C166.359 35.384 164.857 36.8258 163.416 38.3878C161.974 39.9497 160.742 41.6018 159.721 43.3439C160.081 43.4641 160.472 43.5242 160.892 43.5242Z" fill="white"/>
<path d="M201.879 56.0498C200.257 56.0498 199.115 55.5992 198.454 54.6981C197.794 53.7369 197.463 52.5654 197.463 51.1837C197.463 47.6994 198.665 43.9747 201.068 40.0098L206.835 30.6381C202.75 33.6419 198.695 37.3965 194.67 41.9022C193.588 43.1036 192.357 44.5154 190.975 46.1374C189.653 47.7594 188.182 49.6218 186.56 51.7244C184.397 54.5479 183.105 55.9597 182.685 55.9597C181.844 55.9597 181.153 55.5992 180.612 54.8783C180.072 54.0973 179.801 53.4065 179.801 52.8057C179.801 52.3251 179.951 51.454 180.252 50.1925C180.552 48.8708 180.913 47.7294 181.333 46.7682C181.754 45.7469 182.174 44.7557 182.595 43.7945C183.075 42.7732 183.526 41.782 183.946 40.8208L178.54 46.4979C178.42 46.618 178.059 46.9785 177.458 47.5792C176.858 48.18 176.377 48.4803 176.017 48.4803C175.716 48.4803 175.566 48.2701 175.566 47.8496C175.566 47.7294 175.626 47.5792 175.746 47.399C175.806 47.1587 175.986 46.8884 176.287 46.588C177.188 45.6869 178.119 44.7257 179.08 43.7044C180.042 42.6831 181.033 41.5117 182.054 40.19C182.595 39.5292 183.406 38.538 184.487 37.2163C185.568 35.8346 186.74 34.3628 188.001 32.8008C189.323 31.2389 190.555 29.7971 191.696 28.4754C191.996 28.0549 192.327 27.7846 192.687 27.6644C193.048 27.4842 193.288 27.3941 193.408 27.3941C195.03 27.3941 195.841 28.0249 195.841 29.2865C195.841 29.6469 195.751 30.0073 195.571 30.3678C190.164 37.8171 186.92 43.4941 185.839 47.399C192.807 40.4303 198.394 35.2038 202.6 31.7195C206.865 28.1751 209.899 26.4029 211.701 26.4029C212.662 26.4029 213.383 26.553 213.864 26.8534C214.404 27.1538 214.675 27.7245 214.675 28.5656C214.675 28.8659 214.645 29.1062 214.585 29.2865C214.404 29.707 213.173 31.3891 210.89 34.3327C209.508 36.0148 208.277 37.5467 207.195 38.9285C206.174 40.3102 205.333 41.5117 204.672 42.5329C203.591 44.215 202.78 45.807 202.239 47.3089C201.698 48.7507 201.428 49.9822 201.428 51.0035C201.428 51.424 201.488 51.9346 201.608 52.5354C201.729 53.1361 202.089 53.4365 202.69 53.4365C204.071 53.4365 206.234 52.235 209.178 49.832C210.56 48.6305 211.851 47.429 213.053 46.2275C214.254 44.966 215.396 43.7344 216.477 42.5329C216.717 42.2926 217.108 41.8421 217.648 41.1813C218.189 40.4604 218.519 40.0999 218.64 40.0999C218.88 40.0999 219 40.3402 219 40.8208C219 41.0611 218.85 41.4816 218.549 42.0824C218.309 42.6231 218.039 43.0436 217.738 43.3439C217.078 44.1249 216.086 45.2063 214.765 46.588C213.503 47.9697 212.061 49.3815 210.439 50.8233C208.877 52.2651 207.345 53.4966 205.844 54.5179C204.342 55.5391 203.02 56.0498 201.879 56.0498Z" fill="white"/>
</svg>
